name rise42.5664peak47.7979fall81.9185.mot
datacolumns 19
datarows 36
range 10.80662800000000 10.86495600000000
endheader
time	ground_force1_vx	ground_force1_vy	ground_force1_vz	ground_force1_px	ground_force1_py	ground_force1_pz	ground_force2_vx	ground_force2_vy	ground_force2_vz	ground_force2_px	ground_force2_py	ground_force2_pz	ground_torque1_x	ground_torque1_y	ground_torque1_z	ground_torque2_x	ground_torque2_y	ground_torque2_z	
10.80662800000000	-2.99038100000000	708.92859799999997	37.84400900000000	0.15410700000000	0.00000000000000	0.09774100000000	0.00000000000000	0.00000000000000	0.00000000000000	0.00000000000000	0.00000000000000	0.00000000000000	0.00000000000000	12.34035700000000	0.00000000000000	0.00000000000000	0.00000000000000	0.00000000000000	
10.80829400000000	-3.42528300000000	710.13225999999997	37.83755300000000	0.15325800000000	0.00000000000000	0.09771200000000	0.00000000000000	0.00000000000000	0.00000000000000	0.00000000000000	0.00000000000000	0.00000000000000	0.00000000000000	12.40683200000000	0.00000000000000	0.00000000000000	0.00000000000000	0.00000000000000	
10.80995900000000	-3.86959500000000	711.36023799999998	37.83314700000000	0.15239900000000	0.00000000000000	0.09768400000000	0.00000000000000	0.00000000000000	0.00000000000000	0.00000000000000	0.00000000000000	0.00000000000000	0.00000000000000	12.47602300000000	0.00000000000000	0.00000000000000	0.00000000000000	0.00000000000000	
10.81162800000000	-4.32339100000000	712.61215500000003	37.83078900000000	0.15153200000000	0.00000000000000	0.09765600000000	0.00000000000000	0.00000000000000	0.00000000000000	0.00000000000000	0.00000000000000	0.00000000000000	0.00000000000000	12.54790200000000	0.00000000000000	0.00000000000000	0.00000000000000	0.00000000000000	
10.81329600000000	-4.78670300000000	713.88769700000000	37.83048200000000	0.15065600000000	0.00000000000000	0.09762900000000	0.00000000000000	0.00000000000000	0.00000000000000	0.00000000000000	0.00000000000000	0.00000000000000	0.00000000000000	12.62243800000000	0.00000000000000	0.00000000000000	0.00000000000000	0.00000000000000	
10.81495700000000	-5.25952300000000	715.18661299999997	37.83223700000000	0.14977200000000	0.00000000000000	0.09760100000000	0.00000000000000	0.00000000000000	0.00000000000000	0.00000000000000	0.00000000000000	0.00000000000000	0.00000000000000	12.69958900000000	0.00000000000000	0.00000000000000	0.00000000000000	0.00000000000000	
10.81662100000000	-5.74180200000000	716.50870699999996	37.83607200000000	0.14888100000000	0.00000000000000	0.09757500000000	0.00000000000000	0.00000000000000	0.00000000000000	0.00000000000000	0.00000000000000	0.00000000000000	0.00000000000000	12.77931100000000	0.00000000000000	0.00000000000000	0.00000000000000	0.00000000000000	
10.81829600000000	-6.23345200000000	717.85383600000000	37.84200900000000	0.14798200000000	0.00000000000000	0.09754800000000	0.00000000000000	0.00000000000000	0.00000000000000	0.00000000000000	0.00000000000000	0.00000000000000	0.00000000000000	12.86154800000000	0.00000000000000	0.00000000000000	0.00000000000000	0.00000000000000	
10.81995600000000	-6.73434500000000	719.22190200000000	37.85007800000000	0.14707700000000	0.00000000000000	0.09752200000000	0.00000000000000	0.00000000000000	0.00000000000000	0.00000000000000	0.00000000000000	0.00000000000000	0.00000000000000	12.94624100000000	0.00000000000000	0.00000000000000	0.00000000000000	0.00000000000000	
10.82162000000000	-7.24431100000000	720.61285099999998	37.86031500000000	0.14616500000000	0.00000000000000	0.09749600000000	0.00000000000000	0.00000000000000	0.00000000000000	0.00000000000000	0.00000000000000	0.00000000000000	0.00000000000000	13.03332200000000	0.00000000000000	0.00000000000000	0.00000000000000	0.00000000000000	
10.82329200000000	-7.76314300000000	722.02666199999999	37.87276000000000	0.14524700000000	0.00000000000000	0.09747000000000	0.00000000000000	0.00000000000000	0.00000000000000	0.00000000000000	0.00000000000000	0.00000000000000	0.00000000000000	13.12271500000000	0.00000000000000	0.00000000000000	0.00000000000000	0.00000000000000	
10.82495700000000	-8.29059300000000	723.46334600000000	37.88746200000000	0.14432400000000	0.00000000000000	0.09744500000000	0.00000000000000	0.00000000000000	0.00000000000000	0.00000000000000	0.00000000000000	0.00000000000000	0.00000000000000	13.21433800000000	0.00000000000000	0.00000000000000	0.00000000000000	0.00000000000000	
10.82662200000000	-8.82637700000000	724.92293500000005	37.90447200000000	0.14339600000000	0.00000000000000	0.09741900000000	0.00000000000000	0.00000000000000	0.00000000000000	0.00000000000000	0.00000000000000	0.00000000000000	0.00000000000000	13.30809900000000	0.00000000000000	0.00000000000000	0.00000000000000	0.00000000000000	
10.82829300000000	-9.37017100000000	726.40547700000002	37.92385100000000	0.14246400000000	0.00000000000000	0.09739400000000	0.00000000000000	0.00000000000000	0.00000000000000	0.00000000000000	0.00000000000000	0.00000000000000	0.00000000000000	13.40390000000000	0.00000000000000	0.00000000000000	0.00000000000000	0.00000000000000	
10.82995500000000	-9.92161800000000	727.91103099999998	37.94566200000000	0.14152900000000	0.00000000000000	0.09737000000000	0.00000000000000	0.00000000000000	0.00000000000000	0.00000000000000	0.00000000000000	0.00000000000000	0.00000000000000	13.50163800000000	0.00000000000000	0.00000000000000	0.00000000000000	0.00000000000000	
10.83162700000000	-10.48032100000000	729.43965700000001	37.96997600000000	0.14059000000000	0.00000000000000	0.09734500000000	0.00000000000000	0.00000000000000	0.00000000000000	0.00000000000000	0.00000000000000	0.00000000000000	0.00000000000000	13.60119700000000	0.00000000000000	0.00000000000000	0.00000000000000	0.00000000000000	
10.83329000000000	-11.04585300000000	730.99140699999998	37.99686600000000	0.13965000000000	0.00000000000000	0.09732100000000	0.00000000000000	0.00000000000000	0.00000000000000	0.00000000000000	0.00000000000000	0.00000000000000	0.00000000000000	13.70246000000000	0.00000000000000	0.00000000000000	0.00000000000000	0.00000000000000	
10.83495300000000	-11.61775300000000	732.56632300000001	38.02641300000000	0.13870700000000	0.00000000000000	0.09729700000000	0.00000000000000	0.00000000000000	0.00000000000000	0.00000000000000	0.00000000000000	0.00000000000000	0.00000000000000	13.80529800000000	0.00000000000000	0.00000000000000	0.00000000000000	0.00000000000000	
10.83662400000000	-12.19552600000000	734.16442600000005	38.05870300000000	0.13776400000000	0.00000000000000	0.09727400000000	0.00000000000000	0.00000000000000	0.00000000000000	0.00000000000000	0.00000000000000	0.00000000000000	0.00000000000000	13.90957800000000	0.00000000000000	0.00000000000000	0.00000000000000	0.00000000000000	
10.83829500000000	-12.77864900000000	735.78570500000001	38.09382500000000	0.13682000000000	0.00000000000000	0.09725000000000	0.00000000000000	0.00000000000000	0.00000000000000	0.00000000000000	0.00000000000000	0.00000000000000	0.00000000000000	14.01515800000000	0.00000000000000	0.00000000000000	0.00000000000000	0.00000000000000	
10.83995900000000	-13.36657100000000	737.43011799999999	38.13187400000000	0.13587600000000	0.00000000000000	0.09722700000000	0.00000000000000	0.00000000000000	0.00000000000000	0.00000000000000	0.00000000000000	0.00000000000000	0.00000000000000	14.12189300000000	0.00000000000000	0.00000000000000	0.00000000000000	0.00000000000000	
10.84162300000000	-13.95871400000000	739.09757500000001	38.17294900000000	0.13493300000000	0.00000000000000	0.09720400000000	0.00000000000000	0.00000000000000	0.00000000000000	0.00000000000000	0.00000000000000	0.00000000000000	0.00000000000000	14.22962700000000	0.00000000000000	0.00000000000000	0.00000000000000	0.00000000000000	
10.84329400000000	-14.55447300000000	740.78793900000005	38.21715200000000	0.13399100000000	0.00000000000000	0.09718200000000	0.00000000000000	0.00000000000000	0.00000000000000	0.00000000000000	0.00000000000000	0.00000000000000	0.00000000000000	14.33820300000000	0.00000000000000	0.00000000000000	0.00000000000000	0.00000000000000	
10.84495900000000	-15.15322300000000	742.50100999999995	38.26459100000000	0.13305100000000	0.00000000000000	0.09716000000000	0.00000000000000	0.00000000000000	0.00000000000000	0.00000000000000	0.00000000000000	0.00000000000000	0.00000000000000	14.44745600000000	0.00000000000000	0.00000000000000	0.00000000000000	0.00000000000000	
10.84662700000000	-15.75431500000000	744.23652700000002	38.31537500000000	0.13211400000000	0.00000000000000	0.09713800000000	0.00000000000000	0.00000000000000	0.00000000000000	0.00000000000000	0.00000000000000	0.00000000000000	0.00000000000000	14.55721400000000	0.00000000000000	0.00000000000000	0.00000000000000	0.00000000000000	
10.84829100000000	-16.35708100000000	745.99415599999998	38.36961900000000	0.13117900000000	0.00000000000000	0.09711700000000	0.00000000000000	0.00000000000000	0.00000000000000	0.00000000000000	0.00000000000000	0.00000000000000	0.00000000000000	14.66730500000000	0.00000000000000	0.00000000000000	0.00000000000000	0.00000000000000	
10.84995400000000	-16.96083900000000	747.77348300000006	38.42743800000000	0.13024900000000	0.00000000000000	0.09709600000000	0.00000000000000	0.00000000000000	0.00000000000000	0.00000000000000	0.00000000000000	0.00000000000000	0.00000000000000	14.77754700000000	0.00000000000000	0.00000000000000	0.00000000000000	0.00000000000000	
10.85162600000000	-17.56488700000000	749.57401100000004	38.48895200000000	0.12932200000000	0.00000000000000	0.09707600000000	0.00000000000000	0.00000000000000	0.00000000000000	0.00000000000000	0.00000000000000	0.00000000000000	0.00000000000000	14.88775900000000	0.00000000000000	0.00000000000000	0.00000000000000	0.00000000000000	
10.85329400000000	-18.16851400000000	751.39515300000005	38.55428100000000	0.12840000000000	0.00000000000000	0.09705600000000	0.00000000000000	0.00000000000000	0.00000000000000	0.00000000000000	0.00000000000000	0.00000000000000	0.00000000000000	14.99775300000000	0.00000000000000	0.00000000000000	0.00000000000000	0.00000000000000	
10.85496100000000	-18.77099700000000	753.23622599999999	38.62354600000000	0.12748300000000	0.00000000000000	0.09703600000000	0.00000000000000	0.00000000000000	0.00000000000000	0.00000000000000	0.00000000000000	0.00000000000000	0.00000000000000	15.10733900000000	0.00000000000000	0.00000000000000	0.00000000000000	0.00000000000000	
10.85662900000000	-19.37160300000000	755.09644700000001	38.69687000000000	0.12657100000000	0.00000000000000	0.09701700000000	0.00000000000000	0.00000000000000	0.00000000000000	0.00000000000000	0.00000000000000	0.00000000000000	0.00000000000000	15.21632600000000	0.00000000000000	0.00000000000000	0.00000000000000	0.00000000000000	
10.85828900000000	-19.96959500000000	756.97493099999997	38.77437700000000	0.12566600000000	0.00000000000000	0.09699900000000	0.00000000000000	0.00000000000000	0.00000000000000	0.00000000000000	0.00000000000000	0.00000000000000	0.00000000000000	15.32451800000000	0.00000000000000	0.00000000000000	0.00000000000000	0.00000000000000	
10.85996200000000	-20.56423100000000	758.87068299999999	38.85618900000000	0.12476700000000	0.00000000000000	0.09698100000000	0.00000000000000	0.00000000000000	0.00000000000000	0.00000000000000	0.00000000000000	0.00000000000000	0.00000000000000	15.43172000000000	0.00000000000000	0.00000000000000	0.00000000000000	0.00000000000000	
10.86162700000000	-21.15476800000000	760.78259800000001	38.94242600000000	0.12387400000000	0.00000000000000	0.09696400000000	0.00000000000000	0.00000000000000	0.00000000000000	0.00000000000000	0.00000000000000	0.00000000000000	0.00000000000000	15.53773500000000	0.00000000000000	0.00000000000000	0.00000000000000	0.00000000000000	
10.86329200000000	-21.74046300000000	762.70945900000004	39.03320900000000	0.12298900000000	0.00000000000000	0.09694800000000	0.00000000000000	0.00000000000000	0.00000000000000	0.00000000000000	0.00000000000000	0.00000000000000	0.00000000000000	15.64236600000000	0.00000000000000	0.00000000000000	0.00000000000000	0.00000000000000	
10.86495600000000	-22.32057700000000	764.64993400000003	39.12865500000000	0.12211100000000	0.00000000000000	0.09693200000000	0.00000000000000	0.00000000000000	0.00000000000000	0.00000000000000	0.00000000000000	0.00000000000000	0.00000000000000	15.74541600000000	0.00000000000000	0.00000000000000	0.00000000000000	0.00000000000000	
